<svg width="200" height="150" xmlns="http://www.w3.org/2000/svg">

 <g>
  <title>background</title>
  <rect fill="none" id="canvas_background" height="152" width="202" y="-1" x="-1"/>
 </g>
 <g>
  <title>Layer 1</title>
  <g id="svg_1" text-anchor="none" font-size="none" font-weight="none" font-family="none" stroke-dashoffset="0" stroke-miterlimit="10" fill-rule="nonzero" fill="#3c90a4">
   <g stroke="null" id="svg_2" transform="translate(-6.425000190734863,3.932650089263916) scale(0.5) ">
    <g stroke="null" id="svg_3" transform="translate(0,512) scale(0.10000000149011612,-0.10000000149011612) ">
     <path stroke="null" id="svg_4" d="m502.328695,4380.31033c-303.77908,-77.26785 -408.566985,-410.683913 -193.698856,-618.142797c76.209386,-74.092458 168.295727,-112.197151 431.853187,-177.8219c123.840252,-31.753911 202.166565,-68.80014 222.277375,-105.846369c20.11081,-37.046229 15.876955,-104.787906 -7.409246,-145.009526c-44.455475,-76.209386 -130.191034,-107.963297 -267.791314,-101.612514c-148.184917,7.409246 -238.154331,75.150922 -268.849778,202.166565l-6.350782,28.57852l-133.366425,0l-134.424889,0l7.409246,-43.397011c44.455475,-275.20056 244.505113,-422.327013 573.687321,-422.327013c234.97894,1.058464 410.683913,94.203269 489.010226,262.498996c24.344665,51.864721 28.57852,74.092458 28.57852,160.886481c0,85.735559 -4.233855,109.02176 -27.520056,158.769554c-67.741676,146.06799 -149.243381,194.757319 -456.197852,276.259024c-251.914359,65.624749 -304.837543,97.37866 -304.837543,179.938828c0,53.981648 39.163157,98.437123 106.904833,120.664861c74.092458,25.403129 223.335839,17.993883 275.20056,-11.643101c41.280084,-24.344665 82.560168,-80.443241 91.027878,-122.781788l6.350782,-29.636983l135.483353,0l136.541816,0l0,25.403129c0,49.747794 -42.338548,160.886481 -81.501704,211.692739c-48.68933,62.449358 -123.840252,116.431006 -196.874247,140.775671c-71.975531,22.227738 -348.234555,29.636983 -425.502404,10.584637z"/>
     <path stroke="null" id="svg_5" d="m1513.161521,4134.746753l0,-248.738968l137.60028,0l137.60028,0l0,132.307962l0,132.307962l269.908242,0l269.908242,0l0,-132.307962l0,-132.307962l137.60028,0l137.60028,0l0,248.738968l0,248.738968l-545.108802,0l-545.108802,0l0,-248.738968z"/>
     <path stroke="null" id="svg_6" d="m2839.416528,4375.018011c3.175391,-4.233855 50.806257,-136.541816 105.846369,-293.194443c218.043521,-614.967405 282.609806,-799.140088 329.182208,-925.097267c26.461592,-73.033995 48.68933,-133.366425 48.68933,-135.483353c0,-2.116927 68.80014,-3.175391 151.360308,-3.175391l152.418772,0l17.993883,45.513939c9.526173,24.344665 42.338548,109.02176 70.917067,187.348074c29.636983,78.326313 69.858604,185.231146 91.027878,237.095867c32.812374,83.618632 115.372543,311.188326 274.142096,755.743077l46.572402,129.132571l-147.126453,0l-146.06799,0l-16.935419,-39.163157c-9.526173,-22.227738 -44.455475,-116.431006 -76.209386,-209.575811c-32.812374,-93.144805 -74.092458,-211.692739 -93.144805,-264.615923l-33.870838,-95.261732l-3.175391,310.129862l-2.116927,309.071398l-132.307962,0l-132.307962,0l0,-303.77908c0,-168.295727 -4.233855,-297.428298 -9.526173,-288.960588c-4.233855,8.46771 -52.923185,146.06799 -106.904833,304.837543l-98.437123,287.902124l-147.126453,0c-81.501704,0 -145.009526,-3.175391 -142.892599,-8.46771z"/>
     <path stroke="null" id="svg_7" d="m1343.80733,3727.238231l0,-116.431006l714.462993,0l714.462993,0l0,116.431006l0,116.431006l-714.462993,0l-714.462993,0l0,-116.431006z"/>
     <path stroke="null" id="svg_8" d="m1513.161521,3293.268117l0,-275.20056l545.108802,0l545.108802,0l0,275.20056l0,275.20056l-137.60028,0l-137.60028,0l0,-158.769554l0,-158.769554l-269.908242,0l-269.908242,0l0,158.769554l0,158.769554l-137.60028,0l-137.60028,0l0,-275.20056z"/>
    </g>
   </g>
  </g>
 </g>
</svg>