<svg version="1.1" xmlns="http://www.w3.org/2000/svg" xmlns:xlink="http://www.w3.org/1999/xlink" width="512.000000pt" height="512.000000pt" viewBox="0,0,256,256"><g fill="#3c90a4" fill-rule="nonzero" stroke="none" stroke-width="1" stroke-linecap="butt" stroke-linejoin="miter" stroke-miterlimit="10" stroke-dasharray="" stroke-dashoffset="0" font-family="none" font-weight="none" font-size="none" text-anchor="none" style="mix-blend-mode: normal"><g transform="translate(-6.425,3.93265) scale(0.5,0.5)"><g transform="translate(0,512) scale(0.1,-0.1)"><path d="M1145,3287c-287,-73 -386,-388 -183,-584c72,-70 159,-106 408,-168c117,-30 191,-65 210,-100c19,-35 15,-99 -7,-137c-42,-72 -123,-102 -253,-96c-140,7 -225,71 -254,191l-6,27h-126h-127l7,-41c42,-260 231,-399 542,-399c222,1 388,89 462,248c23,49 27,70 27,152c0,81 -4,103 -26,150c-64,138 -141,184 -431,261c-238,62 -288,92 -288,170c0,51 37,93 101,114c70,24 211,17 260,-11c39,-23 78,-76 86,-116l6,-28h128h129v24c0,47 -40,152 -77,200c-46,59 -117,110 -186,133c-68,21 -329,28 -402,10z"></path><path d="M2100,3055v-235h130h130v125v125h255h255v-125v-125h130h130v235v235h-515h-515z"></path><path d="M3353,3282c3,-4 48,-129 100,-277c206,-581 267,-755 311,-874c25,-69 46,-126 46,-128c0,-2 65,-3 143,-3h144l17,43c9,23 40,103 67,177c28,74 66,175 86,224c31,79 109,294 259,714l44,122h-139h-138l-16,-37c-9,-21 -42,-110 -72,-198c-31,-88 -70,-200 -88,-250l-32,-90l-3,293l-2,292h-125h-125v-287c0,-159 -4,-281 -9,-273c-4,8 -50,138 -101,288l-93,272h-139c-77,0 -137,-3 -135,-8z"></path><path d="M1940,2670v-110h675h675v110v110h-675h-675z"></path><path d="M2100,2260v-260h515h515v260v260h-130h-130v-150v-150h-255h-255v150v150h-130h-130z"></path></g></g></g></svg>